<svg xmlns="http://www.w3.org/2000/svg" viewBox="0 0 1000 1000"><title>Lerasium</title><circle cx="611.8" cy="303.04" r="34.08" transform="translate(46.85 686.4) rotate(-60.51)"/><path d="M258.49,531.34c11.87,77.36,57.69,136.21,120.56,172.44v0l.85.47.84.49v0c63.45,35.21,137.5,44.15,209.91,14.46,126.66-51.94,188.83-193.75,136.89-320.41L705.3,386.2l-5,8.9c7.18,11.36,12.19,25.62,15.65,39.57C740.16,532.43,665,626.92,556.79,649.93c-46.23,5.7-95.9,1.51-134.78-20.14-38.59-22.17-67.78-62.57-86.71-105.13-36-104.56,6.2-217.7,102.48-247.29,13.73-4.22,28.53-7.28,42-7l5-8.9-22.24-12.58C327.22,269.67,237.73,396,258.49,531.34Z"/><path d="M375.72,494.41c6.65,43.36,32.33,76.34,67.57,96.65h0l.48.26.47.27h0c35.56,19.73,77.06,24.75,117.65,8.1,71-29.11,105.83-108.59,76.72-179.57l-12.47-7.05-2.82,5c4,6.37,6.83,14.36,8.77,22.18C645.67,495,603.53,548,542.91,560.88c-25.91,3.2-53.75.85-75.54-11.29-21.63-12.42-38-35.07-48.6-58.92-20.19-58.6,3.48-122,57.43-138.59,7.7-2.37,16-4.08,23.52-3.91l2.82-5-12.47-7.05C414.24,347.76,364.09,418.58,375.72,494.41Z"/><path d="M563.09,782.2c-26.16,0-36.39-24-36.39-54h0V596H472.38V728.21h0c0,30-7.91,54-34.07,54H426.43v18.45H575V782.2Z"/><path d="M419.86,569.41l-28.33-46.34-112.8,69c-25.61,15.66-50.18,21.41-63.83-.91L208.7,581,193,590.6,231.71,654l38.75,63.37,15.74-9.62L280,697.58c-13.64-22.31,1.46-43.55,27.08-59.21h0Z"/></svg>