<svg xmlns="http://www.w3.org/2000/svg" viewBox="0 0 1000 1000"><title>Nicrosil</title><path d="M361.33,309.66l175.27,307,47.17-26.93-175.27-307Z"/><path d="M536.6,616.63l55.73,45.17-8.56-72.1Z"/><path d="M292.63,286.72l10.33-5.9c22.71-13,43.48,2.77,58.37,28.84l22.58-12.89,24.59-14c-14.88-26.07-19.9-50.8,2.82-63.77l10.33-5.9-9.15-16L348,233.87l-64.5,36.83Z"/><circle cx="466.92" cy="586.06" r="34.08"/><path d="M690.8,336.22C642.39,274.72,573.53,246.05,501,245.47v0H499v0c-72.56.59-141.42,29.26-189.83,90.75-84.68,107.56-69,261.6,38.58,346.28h25.55V672.28c-11.84-6.36-23.22-16.3-33.1-26.74-69.23-73.15-50.29-192.42,32.53-265.7C410.2,352.12,455.5,331.32,500,331c44.5.3,89.8,21.1,127.23,48.82,82.83,73.28,101.77,192.54,32.53,265.7-9.87,10.43-21.25,20.38-33.1,26.74V682.5h25.55C759.79,597.82,775.48,443.78,690.8,336.22Z"/><path d="M606.93,426.07c-27.13-34.46-65.72-50.53-106.39-50.86h-1.09c-40.67.33-79.26,16.4-106.39,50.86-47.46,60.28-38.66,146.62,21.62,194.07H429v-5.73c-6.64-3.56-13-9.14-18.55-15-38.8-41-28.19-107.84,18.23-148.91,21-15.54,46.37-27.2,71.31-27.36,24.94.17,50.33,11.83,71.31,27.36,46.42,41.07,57,107.91,18.23,148.91-5.53,5.85-11.91,11.42-18.55,15v5.73h14.32C645.6,572.68,654.39,486.35,606.93,426.07Z"/></svg>